solid OpenSCAD_Model
  facet normal -0 0 1
    outer loop
      vertex 15 11.3 0
      vertex 45 0 0
      vertex 45 11.3 0
    endloop
  endfacet
  facet normal 0 0 1
    outer loop
      vertex 45 0 0
      vertex 15 11.3 0
      vertex 15 0 0
    endloop
  endfacet
  facet normal 0 0 -1
    outer loop
      vertex 15 0 5
      vertex 45 0.5 5
      vertex 45 0 5
    endloop
  endfacet
  facet normal -0 0 -1
    outer loop
      vertex 45 0.5 5
      vertex 15 0 5
      vertex 15 0.5 5
    endloop
  endfacet
  facet normal 0 0 -1
    outer loop
      vertex 15 10.8 5
      vertex 45 11.3 5
      vertex 45 10.8 5
    endloop
  endfacet
  facet normal -0 0 -1
    outer loop
      vertex 45 11.3 5
      vertex 15 10.8 5
      vertex 15 11.3 5
    endloop
  endfacet
  facet normal 0 -1 0
    outer loop
      vertex 15 11.3 0
      vertex 45 11.3 5
      vertex 15 11.3 5
    endloop
  endfacet
  facet normal 0 -1 -0
    outer loop
      vertex 45 11.3 5
      vertex 15 11.3 0
      vertex 45 11.3 0
    endloop
  endfacet
  facet normal 0 1 -0
    outer loop
      vertex 45 0 0
      vertex 15 0 5
      vertex 45 0 5
    endloop
  endfacet
  facet normal 0 1 0
    outer loop
      vertex 15 0 5
      vertex 45 0 0
      vertex 15 0 0
    endloop
  endfacet
  facet normal 0 -1 0
    outer loop
      vertex 15 10.8 5
      vertex 45 10.8 6
      vertex 15 10.8 6
    endloop
  endfacet
  facet normal 0 -1 -0
    outer loop
      vertex 45 10.8 6
      vertex 15 10.8 5
      vertex 45 10.8 5
    endloop
  endfacet
  facet normal 0 1 -0
    outer loop
      vertex 45 0.5 5
      vertex 15 0.5 6
      vertex 45 0.5 6
    endloop
  endfacet
  facet normal 0 1 0
    outer loop
      vertex 15 0.5 6
      vertex 45 0.5 5
      vertex 15 0.5 5
    endloop
  endfacet
  facet normal -1 0 0
    outer loop
      vertex 15 15.3 -1
      vertex 15 11.3 0
      vertex 15 15.3 6
    endloop
  endfacet
  facet normal -1 0 0
    outer loop
      vertex 15 15.3 -1
      vertex 15 0 0
      vertex 15 11.3 0
    endloop
  endfacet
  facet normal -1 -0 0
    outer loop
      vertex 15 0 0
      vertex 15 -4 -1
      vertex 15 0 5
    endloop
  endfacet
  facet normal -1 0 0
    outer loop
      vertex 15 -4 -1
      vertex 15 0 0
      vertex 15 15.3 -1
    endloop
  endfacet
  facet normal -1 0 0
    outer loop
      vertex 15 11.3 5
      vertex 15 15.3 6
      vertex 15 11.3 0
    endloop
  endfacet
  facet normal -1 0 0
    outer loop
      vertex 15 10.8 6
      vertex 15 11.3 5
      vertex 15 10.8 5
    endloop
  endfacet
  facet normal -1 0 0
    outer loop
      vertex 15 11.3 5
      vertex 15 10.8 6
      vertex 15 15.3 6
    endloop
  endfacet
  facet normal -1 0 0
    outer loop
      vertex 15 0 5
      vertex 15 0.5 6
      vertex 15 0.5 5
    endloop
  endfacet
  facet normal -1 0 0
    outer loop
      vertex 15 -4 6
      vertex 15 0 5
      vertex 15 -4 -1
    endloop
  endfacet
  facet normal -1 0 0
    outer loop
      vertex 15 0 5
      vertex 15 -4 6
      vertex 15 0.5 6
    endloop
  endfacet
  facet normal -0 0 1
    outer loop
      vertex 15 0.5 6
      vertex 45 -4 6
      vertex 45 0.5 6
    endloop
  endfacet
  facet normal 0 0 1
    outer loop
      vertex 45 -4 6
      vertex 15 0.5 6
      vertex 15 -4 6
    endloop
  endfacet
  facet normal -0 0 1
    outer loop
      vertex 15 15.3 6
      vertex 45 10.8 6
      vertex 45 15.3 6
    endloop
  endfacet
  facet normal 0 0 1
    outer loop
      vertex 45 10.8 6
      vertex 15 15.3 6
      vertex 15 10.8 6
    endloop
  endfacet
  facet normal 1 0 0
    outer loop
      vertex 45 0.5 6
      vertex 45 0 5
      vertex 45 0.5 5
    endloop
  endfacet
  facet normal 1 0 0
    outer loop
      vertex 45 0 5
      vertex 45 -4 6
      vertex 45 0 0
    endloop
  endfacet
  facet normal 1 -0 0
    outer loop
      vertex 45 -4 6
      vertex 45 0 5
      vertex 45 0.5 6
    endloop
  endfacet
  facet normal 1 0 0
    outer loop
      vertex 45 15.3 6
      vertex 45 11.3 5
      vertex 45 15.3 -1
    endloop
  endfacet
  facet normal 1 -0 0
    outer loop
      vertex 45 10.8 6
      vertex 45 11.3 5
      vertex 45 15.3 6
    endloop
  endfacet
  facet normal 1 0 0
    outer loop
      vertex 45 11.3 5
      vertex 45 10.8 6
      vertex 45 10.8 5
    endloop
  endfacet
  facet normal 1 -0 0
    outer loop
      vertex 45 11.3 0
      vertex 45 15.3 -1
      vertex 45 11.3 5
    endloop
  endfacet
  facet normal 1 -0 0
    outer loop
      vertex 45 0 0
      vertex 45 15.3 -1
      vertex 45 11.3 0
    endloop
  endfacet
  facet normal 1 0 0
    outer loop
      vertex 45 0 0
      vertex 45 -4 -1
      vertex 45 15.3 -1
    endloop
  endfacet
  facet normal 1 0 0
    outer loop
      vertex 45 -4 -1
      vertex 45 0 0
      vertex 45 -4 6
    endloop
  endfacet
  facet normal 0 0 -1
    outer loop
      vertex 15 -4 -1
      vertex 45 15.3 -1
      vertex 45 -4 -1
    endloop
  endfacet
  facet normal -0 0 -1
    outer loop
      vertex 45 15.3 -1
      vertex 15 -4 -1
      vertex 15 15.3 -1
    endloop
  endfacet
  facet normal 0 -1 0
    outer loop
      vertex 15 -4 -1
      vertex 45 -4 6
      vertex 15 -4 6
    endloop
  endfacet
  facet normal 0 -1 -0
    outer loop
      vertex 45 -4 6
      vertex 15 -4 -1
      vertex 45 -4 -1
    endloop
  endfacet
  facet normal 0 1 -0
    outer loop
      vertex 45 15.3 -1
      vertex 15 15.3 6
      vertex 45 15.3 6
    endloop
  endfacet
  facet normal 0 1 0
    outer loop
      vertex 15 15.3 6
      vertex 45 15.3 -1
      vertex 15 15.3 -1
    endloop
  endfacet
endsolid OpenSCAD_Model
